<?xml version="1.0" standalone="no"?>
<!DOCTYPE svg PUBLIC "-//W3C//DTD SVG 20010904//EN"
 "http://www.w3.org/TR/2001/REC-SVG-20010904/DTD/svg10.dtd">
<svg version="1.0" xmlns="http://www.w3.org/2000/svg"
 width="1280.000000pt" height="853.000000pt" viewBox="0 0 1280.000000 853.000000"
 preserveAspectRatio="xMidYMid meet">
<metadata>
Created by potrace 1.16, written by Peter Selinger 2001-2019
</metadata>
<g transform="translate(0.000000,853.000000) scale(0.100000,-0.100000)"
fill="#000000" stroke="none">
<path d="M6356 8291 c-213 -272 -607 -369 -873 -215 -23 13 -44 24 -47 24 -4
0 -5 -395 -4 -877 l3 -878 22 -48 c43 -93 163 -180 304 -221 30 -9 105 -25
166 -36 201 -36 312 -90 416 -200 l61 -65 75 76 c109 109 203 153 406 189 147
27 207 45 288 87 79 42 147 107 179 172 l23 46 3 878 c1 482 0 877 -4 877 -3
0 -24 -11 -47 -24 -69 -40 -166 -67 -262 -73 -219 -13 -470 105 -612 288 -25
32 -47 59 -48 59 -1 0 -23 -27 -49 -59z m190 -286 c-35 -22 -65 -33 -76 -30
-10 3 -21 2 -24 -4 -9 -14 85 -64 98 -51 7 7 4 14 -8 23 -18 13 -16 16 29 51
27 20 53 35 59 33 38 -13 53 -224 22 -320 -51 -156 -202 -269 -403 -302 -38
-6 -43 -5 -43 12 0 28 42 149 75 213 34 68 31 65 50 50 9 -7 19 -10 22 -6 14
13 -14 41 -55 56 -42 14 -70 6 -41 -13 14 -9 12 -20 -18 -106 -18 -53 -36
-117 -39 -143 -4 -27 -10 -48 -14 -48 -10 0 -27 70 -35 145 -27 246 166 470
410 474 l50 1 -59 -35z m-890 -118 c10 -29 15 -32 57 -35 26 -2 47 -6 47 -10
0 -4 -16 -18 -35 -31 -23 -15 -34 -30 -31 -40 3 -9 8 -29 12 -45 6 -26 5 -27
-14 -17 -12 6 -24 16 -27 21 -10 16 -38 11 -65 -10 -37 -29 -41 -25 -24 22 14
41 14 42 -13 65 -16 12 -31 22 -35 23 -5 0 -8 5 -8 10 0 6 20 10 45 10 43 0
45 1 56 40 13 44 19 44 35 -3z m402 -37 l47 -1 -39 -33 c-37 -32 -38 -35 -27
-66 17 -50 14 -52 -28 -28 l-40 23 -31 -24 c-17 -12 -33 -21 -35 -19 -3 2 1
21 7 42 12 38 11 40 -20 66 -18 14 -32 30 -32 33 0 4 20 7 43 7 43 0 44 1 57
43 l13 42 19 -42 c18 -42 20 -43 66 -43z m802 13 c0 -9 16 -13 45 -13 25 0 45
-3 45 -7 0 -3 -14 -19 -32 -33 -31 -26 -32 -28 -20 -66 6 -21 10 -40 7 -42 -2
-2 -18 6 -36 19 l-32 23 -39 -22 c-41 -24 -44 -22 -27 28 11 31 10 34 -27 66
l-39 33 48 1 c46 0 48 1 64 42 l17 42 12 -29 c7 -17 13 -36 14 -42z m330 22
c11 -33 14 -35 56 -35 24 0 44 -4 44 -10 0 -5 -3 -10 -7 -10 -5 -1 -20 -11
-36 -23 -27 -23 -27 -24 -13 -65 17 -47 13 -51 -24 -22 -32 25 -46 25 -77 0
-38 -30 -44 -25 -27 22 14 41 14 42 -13 65 -16 12 -31 22 -35 23 -5 0 -8 5 -8
10 0 6 20 10 44 10 42 0 45 2 56 35 6 19 15 35 20 35 5 0 14 -16 20 -35z
m-1197 -301 c13 -37 16 -39 62 -44 l49 -5 -38 -25 c-39 -26 -39 -29 -19 -100
l7 -25 -38 28 -37 29 -41 -27 -41 -27 7 23 c20 71 19 74 -18 100 l-36 24 48 5
c45 5 48 7 62 47 8 23 15 41 17 39 2 -1 9 -20 16 -42z m920 -44 l47 -5 -36
-24 c-31 -22 -35 -29 -31 -55 3 -17 9 -39 13 -50 6 -15 0 -14 -34 9 l-41 27
-31 -22 c-17 -12 -33 -20 -35 -18 -3 2 0 20 5 39 13 45 15 41 -27 69 l-37 25
49 5 c47 5 49 6 63 49 l15 45 16 -45 c16 -42 18 -44 64 -49z m-1254 40 c12
-39 13 -40 59 -40 l47 0 -37 -30 c-35 -29 -36 -32 -26 -66 5 -20 7 -38 4 -41
-3 -3 -19 5 -36 17 -32 22 -32 22 -58 3 -52 -37 -52 -37 -38 11 l14 46 -37 30
-36 29 46 1 c44 0 46 1 59 40 7 22 16 40 20 40 4 0 12 -18 19 -40z m1530 0
c12 -39 13 -40 59 -40 l47 -1 -37 -30 -37 -30 14 -44 c14 -48 13 -48 -37 -12
-26 19 -26 19 -58 -3 -17 -12 -33 -20 -36 -17 -3 3 -1 21 4 41 10 34 9 37 -26
66 l-37 30 47 0 c46 0 47 1 59 40 7 22 15 40 19 40 4 0 12 -18 19 -40z m76
-735 c0 -247 -3 -462 -8 -478 -10 -37 -71 -103 -121 -132 -58 -33 -123 -53
-264 -81 -67 -14 -161 -38 -208 -55 -81 -30 -214 -107 -242 -142 -12 -15 -18
-12 -63 23 -114 90 -225 134 -448 180 -168 34 -249 69 -309 134 -22 24 -45 61
-51 82 -12 43 -16 906 -4 917 3 4 392 6 862 5 l856 -3 0 -450z"/>
<path d="M5630 7158 c0 -49 3 -55 30 -71 l30 -18 0 -299 0 -299 -31 -16 c-28
-15 -30 -20 -27 -62 l3 -46 123 -32 122 -31 0 57 c0 51 -3 60 -27 77 l-28 20
-1 171 c-1 94 1 171 5 171 3 0 46 -119 96 -264 l90 -264 51 -16 c28 -9 56 -16
62 -16 9 0 12 110 12 428 l0 429 25 11 c22 10 25 18 25 67 l0 55 -120 0 -120
0 0 -53 c0 -47 3 -54 28 -69 l27 -16 -1 -169 c-1 -92 -3 -181 -4 -198 -1 -20
-32 60 -89 235 l-88 265 -96 3 -97 3 0 -53z"/>
<path d="M6250 7155 c0 -49 3 -57 25 -67 l25 -11 0 -388 0 -389 -25 -6 c-24
-6 -26 -10 -23 -57 l3 -51 115 -43 c63 -23 118 -43 123 -43 4 0 7 23 7 51 0
40 -5 58 -25 81 -25 29 -25 30 -25 244 l0 214 45 0 c34 0 47 -5 55 -20 8 -14
21 -20 45 -20 l35 0 0 110 0 110 -31 0 c-21 0 -37 -8 -51 -25 -15 -19 -29 -25
-59 -25 l-39 0 0 130 0 131 57 -3 56 -3 15 -42 c14 -43 14 -43 63 -43 l49 0 0
110 0 110 -220 0 -220 0 0 -55z"/>
<path d="M6740 7158 c0 -48 3 -55 30 -70 l30 -17 0 -340 0 -340 -35 -28 c-32
-26 -35 -32 -35 -80 0 -29 3 -53 8 -53 4 0 104 27 222 58 l215 58 3 142 3 142
-50 0 -49 0 -6 -37 c-3 -21 -8 -59 -12 -85 -6 -45 -8 -48 -46 -58 -21 -6 -46
-14 -54 -17 -12 -4 -14 41 -14 317 l0 322 25 20 c21 16 25 28 25 69 l0 49
-130 0 -130 0 0 -52z"/>
<path d="M5250 6893 c-657 -106 -1474 -366 -2013 -640 l-128 -65 6 -97 c6 -84
31 -283 51 -393 l7 -38 -207 0 -207 0 3 -77 3 -78 3640 0 3640 0 3 78 3 77
-207 0 -207 0 7 38 c20 114 45 309 51 393 l6 97 -138 70 c-520 264 -1292 514
-1898 617 -82 14 -167 25 -187 25 l-37 0 -3 -283 -3 -283 -33 -66 c-41 -83
-117 -155 -215 -203 -76 -37 -164 -61 -337 -94 -117 -23 -236 -75 -306 -135
-23 -19 -63 -67 -90 -107 -48 -70 -49 -71 -64 -48 -48 73 -109 145 -144 171
-75 55 -179 98 -288 119 -332 63 -472 139 -550 297 l-33 66 -3 283 -3 283 -47
-1 c-26 -1 -58 -4 -72 -6z m-142 -285 l3 -66 -58 -12 c-320 -64 -793 -202
-1138 -332 -182 -69 -456 -189 -461 -202 -3 -7 7 -79 21 -161 14 -82 25 -155
25 -162 0 -9 -18 -13 -69 -13 l-68 0 -16 88 c-23 124 -48 322 -42 332 8 13
354 167 529 235 309 120 651 226 986 303 226 52 263 60 275 58 6 -2 11 -32 13
-68z m2787 32 c393 -86 746 -193 1105 -335 177 -70 487 -208 503 -224 8 -8
-14 -190 -40 -333 l-16 -88 -68 0 c-49 0 -69 4 -69 13 0 6 12 81 26 166 14 84
22 157 17 161 -12 12 -195 93 -353 157 -347 140 -886 302 -1242 373 l-58 11 0
63 c0 70 4 78 34 71 12 -3 84 -19 161 -35z"/>
<path d="M2767 5343 c-4 -3 -7 -366 -7 -805 l0 -798 3645 0 3645 0 -2 803 -3
802 -3636 3 c-2000 1 -3639 -1 -3642 -5z m1233 -290 c94 -35 141 -63 191 -114
73 -75 89 -130 96 -324 11 -322 -26 -446 -157 -530 -106 -67 -230 -85 -595
-85 l-255 0 0 99 c0 110 -4 103 73 117 l37 6 0 323 0 323 -45 11 -45 11 0 96
0 95 323 -3 c296 -4 327 -6 377 -25z m1372 7 c60 -22 119 -75 151 -134 19 -36
22 -57 22 -166 0 -118 -2 -128 -27 -171 -30 -51 -87 -105 -125 -120 -14 -5
-23 -15 -20 -22 3 -6 39 -63 81 -124 59 -86 82 -113 99 -113 65 -1 67 -4 67
-111 l0 -99 -230 0 -230 0 0 100 c0 98 0 100 25 106 14 3 25 11 25 17 0 5 -27
54 -61 108 l-61 99 -64 0 -64 0 0 -105 c0 -77 3 -105 13 -105 6 0 29 -5 50
-11 l37 -10 0 -99 0 -100 -240 0 -240 0 0 100 0 99 38 10 c20 6 43 11 50 11 9
0 12 71 12 324 l0 323 -42 9 -43 9 -3 98 -3 97 365 0 c340 0 369 -1 418 -20z
m1211 -22 c8 -24 32 -89 51 -145 95 -272 222 -634 231 -654 3 -10 26 -22 51
-28 l45 -11 -3 -98 -3 -97 -204 -3 c-125 -1 -207 1 -211 7 -3 6 -5 50 -5 98 0
91 3 96 58 115 4 2 3 18 -4 36 l-11 32 -173 0 -173 0 -11 -31 c-6 -18 -11 -33
-11 -35 0 -1 14 -7 30 -13 l30 -10 0 -100 0 -101 -205 0 -205 0 0 100 0 100
46 12 c26 7 48 17 50 23 17 56 294 826 300 837 3 4 74 8 158 8 l153 0 16 -42z
m1535 -120 l-3 -163 -109 0 -108 0 -20 53 -19 52 -130 0 -129 0 0 -115 0 -115
69 0 c62 0 70 2 85 25 15 23 22 25 96 25 l80 0 0 -150 0 -150 -80 0 c-74 0
-81 2 -96 25 -15 23 -23 25 -85 25 l-69 0 0 -103 0 -103 48 -15 47 -14 0 -95
0 -95 -235 0 -235 0 0 95 0 95 48 14 47 15 0 322 0 322 -37 9 -38 9 -3 97 -3
97 441 0 440 0 -2 -162z m1400 -10 l-3 -173 -104 0 c-117 0 -110 -5 -126 88
l-6 37 -84 0 -85 0 0 -320 c0 -249 3 -320 13 -320 6 0 29 -5 50 -11 l37 -10 0
-100 0 -99 -232 2 -233 3 -3 97 -3 97 38 10 c21 6 44 11 51 11 9 0 12 71 12
320 l0 320 -84 0 -84 0 -6 -47 c-13 -88 -5 -83 -122 -83 l-104 0 0 175 0 175
540 0 540 0 -2 -172z"/>
<path d="M3675 4862 c-3 -3 -5 -149 -5 -325 l0 -320 93 6 c115 8 157 20 191
53 41 41 48 89 44 288 -3 168 -5 184 -26 218 -34 55 -92 79 -201 82 -50 2 -93
1 -96 -2z"/>
<path d="M4960 4760 l0 -130 120 0 c189 0 208 16 198 161 -6 88 -25 97 -200
98 l-118 1 0 -130z"/>
<path d="M6353 4688 c-28 -79 -53 -155 -57 -170 l-6 -28 115 0 c63 0 115 2
115 5 0 8 -110 328 -114 332 -2 2 -26 -60 -53 -139z"/>
<path d="M2760 3526 l0 -54 43 -6 c23 -3 353 -39 732 -81 380 -42 699 -78 710
-80 11 -2 57 -53 102 -112 158 -210 347 -417 653 -718 403 -396 844 -727 1289
-969 57 -31 109 -56 116 -56 7 0 59 25 116 56 445 242 886 573 1289 969 306
301 495 508 653 718 45 59 91 110 102 112 11 2 331 38 710 80 380 42 709 78
733 81 l42 6 0 54 0 54 -3645 0 -3645 0 0 -54z m1984 -313 c351 -393 762 -780
1116 -1050 134 -103 356 -248 461 -303 l82 -43 64 32 c238 117 578 368 928
685 153 138 501 488 629 631 108 120 114 123 229 124 l59 1 -42 -52 c-152
-192 -559 -610 -825 -847 -184 -164 -393 -332 -545 -441 -196 -139 -447 -280
-500 -280 -36 0 -250 118 -410 225 -453 303 -1155 958 -1480 1379 -15 19 -12
19 79 13 l94 -6 61 -68z m1212 -34 c18 -18 28 -41 31 -70 6 -61 -19 -97 -98
-138 -82 -43 -129 -78 -129 -97 0 -11 15 -14 69 -14 65 0 69 1 75 25 5 21 12
25 47 25 l40 0 -3 -67 -3 -68 -165 0 -165 0 -3 32 c-5 48 15 109 48 146 16 18
59 48 97 66 37 19 71 39 75 45 13 19 9 54 -8 60 -47 18 -104 -7 -104 -46 0
-15 -8 -18 -50 -18 l-50 0 0 38 c1 20 7 48 14 61 24 42 53 51 158 49 90 -3
100 -5 124 -29z m365 8 c45 -30 58 -71 58 -194 1 -179 -29 -218 -169 -218
-140 0 -170 39 -169 218 1 176 32 217 169 217 64 0 83 -4 111 -23z m413 -6
c35 -33 43 -90 19 -138 -14 -30 -34 -46 -95 -78 -139 -74 -155 -105 -53 -105
60 0 66 2 77 25 9 20 18 25 50 25 l39 0 -3 -67 -3 -68 -165 0 -165 0 -3 37
c-8 92 36 154 148 211 35 17 68 40 74 50 16 26 -5 51 -46 55 -39 3 -68 -17
-68 -49 0 -16 -7 -19 -50 -19 l-50 0 0 34 c0 93 36 117 172 114 86 -3 99 -6
122 -27z m394 -18 l3 -43 -105 0 -106 0 0 -34 0 -34 31 15 c39 19 111 13 148
-14 43 -32 63 -80 57 -141 -9 -95 -50 -132 -155 -140 -115 -8 -179 28 -184
104 l-2 39 51 3 c50 3 52 2 57 -26 7 -33 39 -47 82 -36 41 10 59 69 35 115
-16 28 -105 28 -120 -1 -8 -15 -21 -20 -50 -20 l-40 0 0 130 0 131 148 -3 147
-3 3 -42z"/>
<path d="M6160 3101 c-5 -11 -10 -62 -10 -115 0 -105 10 -126 60 -126 50 0 60
21 60 126 0 117 -8 134 -60 134 -29 0 -42 -5 -50 -19z"/>
</g>
</svg>
